<svg width="550" height="550" viewBox="0 0 550 550" fill="none" xmlns="http://www.w3.org/2000/svg">
<path fill-rule="evenodd" clip-rule="evenodd" d="M158.15 115.413C148.963 121.177 149.143 124.059 160.672 145.495C174.181 170.533 173.821 167.831 182.648 159.004L178.865 147.656C168.417 116.674 172.02 106.947 158.15 115.413ZM343.502 115.593C333.415 117.935 330.173 122.258 331.614 131.265C332.875 140.091 331.614 140.631 319.726 137.209C311.08 134.687 297.569 134.687 292.886 137.209C287.482 140.091 290.004 142.613 298.29 142.613C325.85 142.613 348.186 162.427 358.273 192.869C373.945 240.603 357.732 266.001 357.732 266.181L331.974 318.599L324.049 307.971C315.403 296.443 308.918 293.201 304.235 297.884C301.713 300.406 302.073 301.486 308.377 309.052C323.688 327.425 325.309 330.127 325.309 337.692C325.309 342.015 327.471 349.581 330.713 356.426C342.241 380.743 339.9 391.911 320.806 403.799C273.792 432.98 86.8194 279.15 125.187 242.764C129.33 238.802 133.473 237.361 146.802 235.199C167.517 231.777 179.045 225.292 181.927 224.211C183.008 224.571 225.158 237.541 245.693 257.175C253.258 264.38 265.687 265.821 265.687 259.336C265.687 253.932 222.456 228.174 202.282 221.509C187.691 216.646 187.691 218.627 201.02 200.975C229.301 162.787 249.296 145.855 265.687 145.855C272.352 145.855 272.892 142.793 266.588 140.451C254.339 135.768 236.146 141.172 220.294 154.501C210.207 162.787 204.083 169.632 175.802 202.776C161.572 219.528 152.927 225.112 141.398 225.292C88.0803 226.012 96.9062 288.157 158.15 342.736C188.412 369.575 232.543 401.458 245.513 405.601C249.115 406.862 255.42 409.564 259.383 411.905C283.7 425.775 310.179 426.676 328.372 416.408C360.615 398.035 346.025 374.979 345.664 346.879C345.484 329.947 351.428 316.797 372.684 271.405C389.436 235.739 389.436 200.074 372.684 175.576C367.28 167.651 368.72 165.489 380.429 163.508C399.703 160.085 399.883 147.837 380.97 127.662C371.963 117.755 356.111 112.711 343.502 115.593ZM373.944 136.128C381.149 145.675 373.764 151.259 366.019 154.861C355.211 160.085 340.44 148.197 348.726 140.631C351.248 138.29 352.689 134.687 351.969 131.625C350.348 125.14 367.099 126.942 373.944 136.128ZM104.111 148.016C100.329 149.457 94.3846 156.483 94.3846 159.365C94.3846 160.085 97.8065 162.247 101.949 164.048C106.092 165.849 117.08 171.433 126.267 176.657C143.92 186.564 148.963 187.645 151.665 182.962C153.106 180.44 150.225 177.738 135.094 166.93C125.007 159.725 115.819 152.16 114.558 150.178C112.397 145.855 110.236 145.495 104.111 148.016ZM85.0175 206.018C75.6508 214.484 77.2722 215.385 101.409 215.745C140.497 216.285 138.876 207.999 98.8878 202.956C90.782 201.875 88.9804 202.236 85.0175 206.018ZM133.112 269.424C135.094 273.747 138.336 279.511 143.379 287.256C149.864 297.523 152.926 299.145 156.889 294.642C158.69 292.48 158.15 290.859 154.728 285.995C136.715 261.318 137.976 258.796 157.43 265.28C185.71 274.467 215.071 296.983 204.803 300.045C176.163 308.331 187.691 347.419 221.915 358.047C239.028 363.451 258.662 352.283 258.662 336.972V329.586C258.842 329.767 305.495 374.439 305.495 381.464C305.495 386.147 282.439 385.426 273.072 380.383C268.749 378.041 260.283 380.383 260.823 383.625C262.084 390.47 309.999 398.215 319.546 392.992C350.168 376.6 230.381 264.2 164.995 251.411C147.342 248.168 125.367 252.131 133.112 269.424ZM236.145 310.313C244.792 317.158 245.153 315.536 241.37 322.741C239.028 327.425 238.668 329.947 240.289 335.891C243.351 348.32 241.009 348.86 225.879 339.674C206.425 327.785 197.779 310.132 211.468 310.132C215.251 310.132 219.934 308.871 221.915 307.43C226.599 303.648 228.22 304.008 236.145 310.313ZM452.121 323.822C448.158 325.263 437.17 327.425 427.803 328.506C399.523 331.928 398.442 337.152 426.002 337.152C447.437 337.152 460.586 334.63 466.891 329.226C475.717 321.661 466.891 318.419 452.121 323.822ZM379.528 352.643C373.584 354.985 375.926 357.326 401.324 374.258C421.859 387.948 432.667 392.091 441.313 389.209C453.562 385.246 446.716 375.519 427.983 370.115C422.399 368.494 410.871 363.631 402.405 359.308C387.454 351.742 384.392 350.842 379.528 352.643ZM366.739 389.209C364.577 390.47 365.118 392.812 368.901 402.719C368.901 402.899 378.988 430.999 378.988 431.179C381.51 441.086 388.895 436.403 398.983 427.757C403.666 423.794 399.523 413.707 388.535 401.278C380.789 392.451 377.366 382.544 366.739 389.209Z" fill="black"/>
</svg>
