<svg width="348" height="361" viewBox="0 0 348 361" fill="none" xmlns="http://www.w3.org/2000/svg">
<path fill-rule="evenodd" clip-rule="evenodd" d="M158.816 0.503949C117.016 5.10395 79.1162 21.0038 46.4162 59.9039C-41.9838 164.904 0.71608 277.004 133.516 298.104C210.916 310.404 188.816 342.304 163.416 349.804C153.116 352.804 152.916 356.704 162.716 359.504C206.916 371.804 360.716 288.704 346.816 149.504C341.016 91.004 315.716 51.0039 270.016 27.9039C251.016 18.3039 248.816 22.904 267.316 33.804C281.516 42.104 295.316 54.4038 304.216 66.6038C319.316 87.4038 329.716 116.104 332.216 144.204C339.416 226.104 293.016 298.204 227.316 331.104C220.416 334.504 196.216 344.604 194.816 344.604C193.516 344.604 220.416 303.704 148.316 293.104C112.616 287.804 97.516 284.004 79.716 275.604C17.116 246.104 0.0161285 177.804 36.8161 104.604C82.9161 12.9038 152.016 3.9038 220.116 17.1038C240.916 21.1038 243.116 15.604 222.116 9.304C198.216 1.904 175.016 -1.29605 158.816 0.503949Z" fill="black"/>
</svg>
