<svg width="398" height="397" viewBox="0 0 398 397" fill="none" xmlns="http://www.w3.org/2000/svg">
<path fill-rule="evenodd" clip-rule="evenodd" d="M145.692 87.2252C56.8418 91.2121 50.7666 98.0467 50.7666 190.693C50.9565 271.759 57.7896 299.857 77.7238 299.857C78.8629 299.857 86.4577 302.135 94.6212 304.793C135.439 318.462 331.364 303.844 339.528 286.378C345.983 272.709 349.399 161.077 344.463 129.941C339.337 98.4264 326.618 88.5542 293.014 89.3136C264.157 90.073 268.524 102.223 297.761 102.223C319.593 102.223 319.783 102.793 320.163 192.022C320.542 277.455 320.733 275.366 307.633 278.594C283.712 284.479 145.691 285.808 86.458 286.757C80.9524 276.316 79.8126 279.733 74.3069 196.958C69.181 117.601 69.3712 117.222 124.997 109.817C163.916 104.691 170.941 104.122 213.277 102.983C252.576 101.844 258.841 101.084 258.841 98.2365C258.652 89.5034 206.823 84.3775 145.692 87.2252ZM294.724 119.31C288.269 124.436 273.459 140.193 224.858 192.022C208.72 209.299 209.291 209.299 192.774 197.718C167.524 180.252 145.692 166.962 128.605 151.584C104.304 129.752 88.9261 121.208 83.6103 126.524C80.3828 129.752 107.91 152.344 144.551 189.364L160.5 205.502C159.93 206.071 127.275 231.321 112.657 251.066C102.785 264.355 113.227 266.823 121.96 260.558C131.073 253.724 146.26 236.827 168.663 213.665L176.637 216.893C189.357 222.019 213.847 218.601 222.39 210.628C228.465 204.932 233.972 203.034 233.972 206.451C233.972 208.919 273.65 248.028 287.699 260.178C295.673 267.013 319.213 274.607 299.279 251.445C284.661 234.739 255.805 205.692 245.363 198.477C242.895 196.769 241.186 195.06 241.566 194.68C269.094 176.834 297.57 146.648 307.442 129.182C319.783 108.109 297.951 116.842 294.724 119.31Z" fill="black"/>
</svg>
