<svg width="397" height="397" viewBox="0 0 397 397" fill="none" xmlns="http://www.w3.org/2000/svg">
<g clip-path="url(#clip0_628_1035)">
<path d="M187.119 3.47933C105.445 20.7061 74.6398 145.55 138.885 198.04C225.83 268.973 299.599 204.93 313.38 178.178C315.205 174.733 319.462 169.869 322.704 167.639C345.2 151.63 343.984 112.312 329.393 77.2502C302.236 11.3834 229.071 -5.23535 187.119 3.47933ZM134.223 71.3729C163.204 27.394 198.469 10.978 244.88 19.8953C286.224 28.002 320.88 66.1035 320.88 103.597C320.88 109.677 320.678 109.677 311.963 109.069C301.019 108.258 285.413 114.541 283.387 120.621C281.766 125.89 280.145 125.89 270.416 121.026C253.392 112.312 241.028 90.8288 236.774 62.6581C232.922 37.3247 223.6 28.0019 211.643 37.5273C190.16 54.754 123.685 102.381 122.672 101.367C121.05 100.151 129.157 78.8715 134.223 71.3729ZM141.114 106.84C162.394 93.6661 197.658 67.7248 204.346 60.2261C209.21 54.9568 211.44 54.9566 211.44 60.6313C211.643 94.0714 242.447 126.701 279.131 131.97L283.183 132.578C290.886 133.794 298.789 131.97 305.072 127.511L308.314 125.282C309.935 124.269 311.963 123.863 313.787 124.471C315.61 125.079 317.232 126.296 317.84 128.12C321.69 137.442 318.65 149.804 310.747 157.303C264.133 201.688 242.65 212.024 203.13 208.984C158.138 205.335 120.037 165.208 120.037 121.229C120.239 120.418 129.562 113.933 141.114 106.84Z" fill="black"/>
<path d="M335.269 340.92C318.853 290.051 292.505 262.487 251.972 253.165C241.636 250.732 221.167 243.031 164.42 248.909C111.524 254.584 70.7881 311.736 61.4655 334.637C40.996 383.885 98.1478 400.707 251.567 398.477C264.943 395.64 358.17 411.854 335.269 340.92ZM193.806 259.042C202.319 257.624 223.397 255.598 244.272 266.136C245.285 266.541 245.892 267.555 246.096 268.567C246.298 269.581 245.893 270.595 245.285 271.405C230.896 286.402 213.061 288.632 205.563 289.037C203.333 289.037 201.102 288.023 199.886 286.402C196.846 282.552 191.984 274.647 190.361 264.311C189.956 261.677 191.578 259.447 193.806 259.042ZM198.671 305.048C196.036 312.343 165.839 346.594 161.785 344.568C157.733 342.542 166.244 305.251 172.122 298.562C177.999 291.672 201.306 297.752 198.671 305.048ZM136.452 271.202C143.546 263.096 160.164 260.259 169.689 259.65C170.5 259.65 171.108 259.852 171.513 260.461C171.919 261.069 172.122 261.677 171.919 262.487C165.637 281.538 137.871 287.416 135.845 287.011C133.615 286.605 130.98 279.917 136.452 271.202ZM113.551 305.858C108.687 318.829 106.052 336.664 106.052 355.511C106.052 374.158 105.85 374.36 92.0683 370.306C76.463 365.848 72.6117 356.93 80.3131 343.554L84.7721 335.448L87.8122 346.189C94.5002 369.496 100.986 356.12 95.9189 329.773C93.8922 319.234 94.906 316.599 106.458 304.035C116.186 293.698 118.01 294.103 113.551 305.858ZM123.482 340.718C120.644 339.502 126.117 311.533 130.778 303.427C135.439 295.32 152.868 291.266 154.489 296.738C156.313 302.413 126.319 342.135 123.482 340.718ZM317.029 367.875C316.624 371.523 305.477 378.008 292.505 381.859C280.548 385.506 168.677 384.899 155.908 381.047L150.032 379.426L169.284 358.146C205.968 317.613 237.988 291.672 258.052 286.605C273.658 282.552 272.848 283.769 294.938 308.493C279.131 315.181 280.75 315.789 269.807 310.317C252.986 301.806 247.311 305.858 255.216 320.653C259.066 327.949 259.675 327.544 232.922 338.893C204.954 350.85 189.349 359.97 189.349 364.631C189.349 370.915 194.213 369.901 215.695 359.363C264.741 335.043 274.874 337.881 268.388 325.721C265.552 320.653 268.388 320.653 277.103 325.923C288.655 333.015 292.1 329.571 304.463 321.869C310.138 335.65 318.448 353.283 317.029 367.875Z" fill="black"/>
</g>
<defs>
<clipPath id="clip0_628_1035">
<rect width="396.33" height="396.33" fill="white" transform="translate(0.527832 0.679688)"/>
</clipPath>
</defs>
</svg>
